# xmcd CD database file
#
# Track frame offsets:
#	150
#	29669
#	53809
#	85758
#	119971
#	143994
#	169717
#	198915
#	226504
#	256165
#	286992
#	317794
#
# Disc length: 4580 seconds
#
# Revision: 0
# Processed by: cddbd v1.5.2PL0 Copyright (c) Steve Scherf et al.
# Submitted via: CDex 1.70beta2
#
DISCID=a711e20c
DTITLE=Dexter Gordon - Go and A Swingin' Affair
DYEAR=1962
DGENRE=Jazz
TTITLE0=Chesse Cake
TTITLE1=I Guess I'll Hang out My Tears to Dry
TTITLE2=Second Balcony Jump
TTITLE3=Love for Sale
TTITLE4=Where Are You
TTITLE5=Three O'Clock in the Morning
TTITLE6=Soy Califa
TTITLE7=Don't Explain
TTITLE8=You Stepped out of a Dream
TTITLE9=The Backbone
TTITLE10=Until the Real Thing Comes Along
TTITLE11=McSplivens
EXTD=YEAR: 1962
EXTT0=
EXTT1=
EXTT2=
EXTT3=
EXTT4=
EXTT5=
EXTT6=
EXTT7=
EXTT8=
EXTT9=
EXTT10=
EXTT11=
PLAYORDER=
